<?xml version="1.0" standalone="no"?><!DOCTYPE svg PUBLIC "-//W3C//DTD SVG 1.1//EN" "http://www.w3.org/Graphics/SVG/1.1/DTD/svg11.dtd"><svg t="1621396975799" class="icon" viewBox="0 0 1024 1024" version="1.1" xmlns="http://www.w3.org/2000/svg" p-id="1181" width="200" height="200" xmlns:xlink="http://www.w3.org/1999/xlink"><defs><style type="text/css"></style></defs><path d="M830.60007911 322.74149785L511.95414307 139.8089252 193.30820703 322.74149785l318.64593604 183.14187715z m-336.98105421 256.39862871L101.44424112 359.36987363a39.6214374 39.6214374 0 0 1 0-66.97760097L493.6190249 66.55217451a39.41213203 39.41213203 0 0 1 36.77488945 0l392.17478292 225.84009815a39.60050625 39.60050625 0 0 1 0 66.97760098l-392.17478292 219.77025292a39.41213203 39.41213203 0 0 1-36.77488945 0z m0 0z" fill="#33caca" p-id="1182"></path><path d="M891.88458418 493.74368545a29.53293574 29.53293574 0 0 1 42.88659522 12.13968955 43.95405059 43.95405059 0 0 1-12.26527295 48.76806622L530.33112266 780.49153847a27.58639922 27.58639922 0 0 1-30.64225255 1e-8L101.38145029 554.65144121a31.85622158 31.85622158 0 0 1-12.24434267-48.76806621c12.24434268-18.41884013 30.62132227-24.48868535 42.88659433-12.13968955l379.93044112 213.49110234z m0 0z" fill="#33caca" p-id="1183"></path><path d="M891.88458418 670.60641201a29.67944941 29.67944941 0 0 1 42.88659522 12.13969043 47.11455615 47.11455615 0 0 1-12.26527295 48.76806534L530.33112266 957.35426592a27.58639922 27.58639922 0 0 1-30.64225255 0L107.51408633 731.51416777a32.83995498 32.83995498 0 0 1-12.26527295-48.76806533c0-12.13969043 24.50961562-18.20953565 36.77488857-12.13969043l379.93044112 213.49110322z m0 0z" fill="#33caca" p-id="1184"></path><path d="M501.36331045 82.87796445l-376.74900527 230.23550303 397.67950547 230.23550303 376.74900439-209.30500283z" fill="#33caca" p-id="1185"></path></svg>